<svg xmlns="http://www.w3.org/2000/svg" viewBox="0 0 1400 430" role="img" aria-labelledby="title desc">
  <title id="title">Screw measurement map</title>
  <desc id="desc">Dark technical screw measurement reference with feed, transition, and metering labels.</desc>
  <defs>
    <linearGradient id="panel" x1="0" x2="1" y1="0" y2="1">
      <stop offset="0" stop-color="#082538"/>
      <stop offset="0.55" stop-color="#061723"/>
      <stop offset="1" stop-color="#02080d"/>
    </linearGradient>
    <linearGradient id="steel" x1="0" x2="0" y1="0" y2="1">
      <stop offset="0" stop-color="#f1fbff" stop-opacity="0.92"/>
      <stop offset="0.34" stop-color="#c4d3d8" stop-opacity="0.96"/>
      <stop offset="0.58" stop-color="#8198a1" stop-opacity="0.98"/>
      <stop offset="1" stop-color="#26343b" stop-opacity="0.98"/>
    </linearGradient>
    <linearGradient id="flight" x1="0" x2="1" y1="0" y2="1">
      <stop offset="0" stop-color="#f8fdff" stop-opacity="0.9"/>
      <stop offset="0.42" stop-color="#b6c8cf" stop-opacity="0.95"/>
      <stop offset="1" stop-color="#34444c" stop-opacity="0.98"/>
    </linearGradient>
    <linearGradient id="drive" x1="0" x2="1" y1="0" y2="0">
      <stop offset="0" stop-color="#394b54"/>
      <stop offset="0.5" stop-color="#b8ccd4"/>
      <stop offset="1" stop-color="#5d727b"/>
    </linearGradient>
    <filter id="softShadow" x="-10%" y="-35%" width="120%" height="170%">
      <feDropShadow dx="0" dy="8" stdDeviation="8" flood-color="#00070d" flood-opacity="0.38"/>
    </filter>
    <clipPath id="flightClip">
      <rect x="260" y="116" width="940" height="154" rx="0"/>
    </clipPath>
  </defs>

  <rect x="8" y="8" width="1384" height="414" rx="18" fill="#030d17" stroke="#18506a" stroke-width="2"/>
  <rect x="100" y="58" width="1200" height="270" rx="14" fill="url(#panel)" stroke="#174b62" stroke-width="1.5"/>

  <rect x="260" y="116" width="340" height="154" fill="#0a7faf" opacity="0.16"/>
  <rect x="600" y="116" width="340" height="154" fill="#12b686" opacity="0.16"/>
  <rect x="940" y="116" width="260" height="154" fill="#c18b1e" opacity="0.16"/>
  <path d="M600 86 V326 M940 86 V326" stroke="#84a3ad" stroke-width="1.2" stroke-dasharray="7 9" opacity="0.3"/>
  <path d="M260 116 H1200 M260 270 H1200" stroke="#31d8ff" stroke-width="1.5" stroke-dasharray="9 9" opacity="0.62"/>

  <g filter="url(#softShadow)">
    <text x="82" y="162" fill="#f3fbff" font-family="Arial, sans-serif" font-size="18" font-weight="900" text-anchor="middle">DRIVE /</text>
    <text x="82" y="183" fill="#f3fbff" font-family="Arial, sans-serif" font-size="18" font-weight="900" text-anchor="middle">SPLINE END</text>

    <rect x="80" y="188" width="104" height="66" rx="9" fill="url(#drive)" stroke="#eaf7fb" stroke-opacity="0.55" stroke-width="1.5"/>
    <path d="M98 202 H166 M98 216 H166 M98 230 H166 M98 244 H166" fill="none" stroke="#eaf7fb" stroke-width="6" stroke-linecap="round" opacity="0.72"/>
    <rect x="184" y="174" width="48" height="94" rx="8" fill="url(#drive)" stroke="#eaf7fb" stroke-opacity="0.55" stroke-width="1.5"/>
    <rect x="232" y="188" width="42" height="66" rx="6" fill="url(#drive)" stroke="#eaf7fb" stroke-opacity="0.5" stroke-width="1.5"/>
    <path d="M274 202 L260 196 L260 246 L274 240 Z" fill="#95aab1" stroke="#eaf7fb" stroke-opacity="0.45"/>
  </g>

  <g filter="url(#softShadow)">
    <path d="M260 196 C380 196 500 196 600 198 C720 201 836 190 940 176 L1200 176 L1200 246 L940 246 C836 235 720 230 600 226 C500 224 380 224 260 224 Z" fill="url(#steel)" stroke="#eaf7fb" stroke-opacity="0.28" stroke-width="1.2"/>
    <path d="M260 196 C380 196 500 196 600 198 C720 201 836 190 940 176 L1200 176" fill="none" stroke="#ffffff" stroke-opacity="0.42" stroke-width="3" stroke-linecap="round"/>
    <path d="M260 211 C380 211 500 211 600 213 C720 216 836 207 940 193 L1198 193" fill="none" stroke="#ffffff" stroke-opacity="0.30" stroke-width="2.5" stroke-linecap="round"/>
    <path d="M260 224 C380 224 500 224 600 226 C720 230 836 235 940 246 L1200 246" fill="none" stroke="#02080d" stroke-opacity="0.45" stroke-width="3" stroke-linecap="round"/>

    <g clip-path="url(#flightClip)">
      <g opacity="0.98">
        <path d="M280 116 H310 L372 270 H342 Z" fill="url(#flight)" stroke="#f4fcff" stroke-opacity="0.78" stroke-width="1.3"/><path d="M314 120 L372 266" stroke="#fff" stroke-opacity="0.5" stroke-width="1.5"/>
        <path d="M338 116 H368 L430 270 H400 Z" fill="url(#flight)" stroke="#f4fcff" stroke-opacity="0.78" stroke-width="1.3"/><path d="M372 120 L430 266" stroke="#fff" stroke-opacity="0.5" stroke-width="1.5"/>
        <path d="M396 116 H426 L488 270 H458 Z" fill="url(#flight)" stroke="#f4fcff" stroke-opacity="0.78" stroke-width="1.3"/><path d="M430 120 L488 266" stroke="#fff" stroke-opacity="0.5" stroke-width="1.5"/>
        <path d="M454 116 H484 L546 270 H516 Z" fill="url(#flight)" stroke="#f4fcff" stroke-opacity="0.78" stroke-width="1.3"/><path d="M488 120 L546 266" stroke="#fff" stroke-opacity="0.5" stroke-width="1.5"/>
        <path d="M512 116 H542 L604 270 H574 Z" fill="url(#flight)" stroke="#f4fcff" stroke-opacity="0.78" stroke-width="1.3"/><path d="M546 120 L604 266" stroke="#fff" stroke-opacity="0.5" stroke-width="1.5"/>
        <path d="M570 116 H600 L662 270 H632 Z" fill="url(#flight)" stroke="#f4fcff" stroke-opacity="0.78" stroke-width="1.3"/><path d="M604 120 L662 266" stroke="#fff" stroke-opacity="0.5" stroke-width="1.5"/>
        <path d="M628 116 H658 L720 270 H690 Z" fill="url(#flight)" stroke="#f4fcff" stroke-opacity="0.78" stroke-width="1.3"/><path d="M662 120 L720 266" stroke="#fff" stroke-opacity="0.5" stroke-width="1.5"/>
        <path d="M686 116 H716 L778 270 H748 Z" fill="url(#flight)" stroke="#f4fcff" stroke-opacity="0.78" stroke-width="1.3"/><path d="M720 120 L778 266" stroke="#fff" stroke-opacity="0.5" stroke-width="1.5"/>
        <path d="M744 116 H774 L836 270 H806 Z" fill="url(#flight)" stroke="#f4fcff" stroke-opacity="0.78" stroke-width="1.3"/><path d="M778 120 L836 266" stroke="#fff" stroke-opacity="0.5" stroke-width="1.5"/>
        <path d="M802 116 H832 L894 270 H864 Z" fill="url(#flight)" stroke="#f4fcff" stroke-opacity="0.78" stroke-width="1.3"/><path d="M836 120 L894 266" stroke="#fff" stroke-opacity="0.5" stroke-width="1.5"/>
        <path d="M860 116 H890 L952 270 H922 Z" fill="url(#flight)" stroke="#f4fcff" stroke-opacity="0.78" stroke-width="1.3"/><path d="M894 120 L952 266" stroke="#fff" stroke-opacity="0.5" stroke-width="1.5"/>
        <path d="M918 116 H948 L1010 270 H980 Z" fill="url(#flight)" stroke="#f4fcff" stroke-opacity="0.78" stroke-width="1.3"/><path d="M952 120 L1010 266" stroke="#fff" stroke-opacity="0.5" stroke-width="1.5"/>
        <path d="M976 116 H1006 L1068 270 H1038 Z" fill="url(#flight)" stroke="#f4fcff" stroke-opacity="0.78" stroke-width="1.3"/><path d="M1010 120 L1068 266" stroke="#fff" stroke-opacity="0.5" stroke-width="1.5"/>
        <path d="M1034 116 H1064 L1126 270 H1096 Z" fill="url(#flight)" stroke="#f4fcff" stroke-opacity="0.78" stroke-width="1.3"/><path d="M1068 120 L1126 266" stroke="#fff" stroke-opacity="0.5" stroke-width="1.5"/>
        <path d="M1092 116 H1122 L1184 270 H1154 Z" fill="url(#flight)" stroke="#f4fcff" stroke-opacity="0.78" stroke-width="1.3"/><path d="M1126 120 L1184 266" stroke="#fff" stroke-opacity="0.5" stroke-width="1.5"/>
      </g>
    </g>
    <rect x="1200" y="118" width="24" height="150" rx="3" fill="#a7bac1" stroke="#eaf7fb" stroke-opacity="0.5" stroke-width="1.5"/>
    <line x1="1224" y1="124" x2="1224" y2="262" stroke="#f2fbff" stroke-opacity="0.7" stroke-width="2"/>
  </g>

  <g font-family="Arial, sans-serif" font-weight="900" text-anchor="middle">
    <path d="M278 336 H555" stroke="#44d7ff" stroke-width="2.5" opacity="0.55"/>
    <path d="M616 336 H890" stroke="#36e5aa" stroke-width="2.5" opacity="0.55"/>
    <path d="M960 336 H1190" stroke="#ffd36f" stroke-width="2.5" opacity="0.55"/>
    <text x="416" y="370" fill="#44d7ff" font-size="28">FEED</text>
    <text x="754" y="370" fill="#36e5aa" font-size="28">TRANSITION</text>
    <text x="1075" y="370" fill="#ffd36f" font-size="28">METERING</text>
  </g>
</svg>