<svg xmlns="http://www.w3.org/2000/svg" viewBox="0 0 1100 360">
  <defs>
    <marker id="aC" markerWidth="8" markerHeight="8" refX="6" refY="4" orient="auto"><path d="M0,0 L8,4 L0,8 Z" fill="#44d7ff"/></marker>
    <marker id="aY" markerWidth="8" markerHeight="8" refX="6" refY="4" orient="auto"><path d="M0,0 L8,4 L0,8 Z" fill="#ffd36f"/></marker>
    <style>
      .s{font:900 14px Arial,sans-serif;fill:#74e9ff}.m{font:900 14px Arial,sans-serif;fill:#ffbf32}.small{font:800 11px Arial,sans-serif;fill:#dce7ea}
    </style>
  </defs>
  <rect width="1100" height="360" rx="14" fill="#020b13"/>
  <rect x="74" y="70" width="870" height="170" rx="10" fill="#061521" stroke="#13475a"/>
  <rect x="130" y="78" width="305" height="154" fill="#0b82ad" opacity=".10"/>
  <rect x="435" y="78" width="300" height="154" fill="#14b987" opacity=".10"/>
  <rect x="735" y="78" width="210" height="154" fill="#c79320" opacity=".12"/>
  <line x1="435" y1="58" x2="435" y2="282" stroke="#7f96a0" stroke-dasharray="6 7" opacity=".35"/>
  <line x1="735" y1="58" x2="735" y2="282" stroke="#7f96a0" stroke-dasharray="6 7" opacity=".35"/>
  <line x1="130" y1="90" x2="945" y2="90" stroke="#34d8ff" stroke-width="2" stroke-dasharray="8 8" opacity=".55"/>
  <line x1="130" y1="220" x2="945" y2="220" stroke="#34d8ff" stroke-width="2" stroke-dasharray="8 8" opacity=".38"/>

  <g stroke="#dbe8ec" stroke-linecap="round" opacity=".86">
    <rect x="42" y="132" width="46" height="48" rx="6" fill="#7c929a" stroke="#cde1e6" stroke-width="2"/>
    <line x1="33" y1="122" x2="33" y2="190" stroke-width="4"/>
    <line x1="43" y1="122" x2="43" y2="190" stroke-width="4"/>
    <line x1="53" y1="122" x2="53" y2="190" stroke-width="4"/>
    <line x1="63" y1="122" x2="63" y2="190" stroke-width="4"/>
    <line x1="73" y1="122" x2="73" y2="190" stroke-width="4"/>
  </g>
  <rect x="88" y="124" width="54" height="64" rx="10" fill="#70878f" stroke="#c6d8de" stroke-width="2"/>
  <rect x="142" y="145" width="32" height="26" rx="4" fill="#789098" stroke="#c6d8de" stroke-width="2"/>

  <path d="M174 142 H428 C520 142 635 145 735 152 C812 157 875 160 945 160" fill="none" stroke="#e8f3f6" stroke-width="7" stroke-linecap="round"/>
  <path d="M174 174 H428 C520 174 635 171 735 166 C812 162 875 160 945 160" fill="none" stroke="#a7bbc2" stroke-width="7" stroke-linecap="round"/>
  <path d="M174 142 H428 C520 142 635 145 735 152 C812 157 875 160 945 160" fill="none" stroke="#304047" stroke-width="1.5" opacity=".55"/>
  <path d="M174 174 H428 C520 174 635 171 735 166 C812 162 875 160 945 160" fill="none" stroke="#304047" stroke-width="1.5" opacity=".55"/>

  <g fill="none" stroke-linejoin="miter" stroke-linecap="square">
    <path d="M190 90 L210 90 L186 220 L166 220 Z" fill="#9fb1b8" fill-opacity=".32" stroke="#e6f1f4" stroke-width="2"/><line x1="210" y1="90" x2="186" y2="220" stroke="#25333a" stroke-width="2" opacity=".55"/>
    <path d="M222 90 L242 90 L218 220 L198 220 Z" fill="#9fb1b8" fill-opacity=".32" stroke="#e6f1f4" stroke-width="2"/>
    <path d="M254 90 L274 90 L250 220 L230 220 Z" fill="#9fb1b8" fill-opacity=".32" stroke="#e6f1f4" stroke-width="2"/><line x1="274" y1="90" x2="250" y2="220" stroke="#25333a" stroke-width="2" opacity=".55"/>
    <path d="M286 90 L306 90 L282 220 L262 220 Z" fill="#9fb1b8" fill-opacity=".32" stroke="#e6f1f4" stroke-width="2"/>
    <path d="M318 90 L338 90 L314 220 L294 220 Z" fill="#9fb1b8" fill-opacity=".32" stroke="#e6f1f4" stroke-width="2"/><line x1="338" y1="90" x2="314" y2="220" stroke="#25333a" stroke-width="2" opacity=".55"/>
    <path d="M350 90 L370 90 L346 220 L326 220 Z" fill="#9fb1b8" fill-opacity=".32" stroke="#e6f1f4" stroke-width="2"/>
    <path d="M382 90 L402 90 L378 220 L358 220 Z" fill="#9fb1b8" fill-opacity=".32" stroke="#e6f1f4" stroke-width="2"/><line x1="402" y1="90" x2="378" y2="220" stroke="#25333a" stroke-width="2" opacity=".55"/>
    <path d="M414 90 L434 90 L410 220 L390 220 Z" fill="#9fb1b8" fill-opacity=".32" stroke="#e6f1f4" stroke-width="2"/>
    <path d="M446 90 L466 90 L442 220 L422 220 Z" fill="#9fb1b8" fill-opacity=".32" stroke="#e6f1f4" stroke-width="2"/><line x1="466" y1="90" x2="442" y2="220" stroke="#25333a" stroke-width="2" opacity=".55"/>
    <path d="M478 90 L498 90 L474 220 L454 220 Z" fill="#9fb1b8" fill-opacity=".32" stroke="#e6f1f4" stroke-width="2"/>
    <path d="M510 90 L530 90 L506 220 L486 220 Z" fill="#9fb1b8" fill-opacity=".32" stroke="#e6f1f4" stroke-width="2"/><line x1="530" y1="90" x2="506" y2="220" stroke="#25333a" stroke-width="2" opacity=".55"/>
    <path d="M542 90 L562 90 L538 220 L518 220 Z" fill="#9fb1b8" fill-opacity=".32" stroke="#e6f1f4" stroke-width="2"/>
    <path d="M574 90 L594 90 L570 220 L550 220 Z" fill="#9fb1b8" fill-opacity=".32" stroke="#e6f1f4" stroke-width="2"/><line x1="594" y1="90" x2="570" y2="220" stroke="#25333a" stroke-width="2" opacity=".55"/>
    <path d="M606 90 L626 90 L602 220 L582 220 Z" fill="#9fb1b8" fill-opacity=".32" stroke="#e6f1f4" stroke-width="2"/>
    <path d="M638 90 L658 90 L634 220 L614 220 Z" fill="#9fb1b8" fill-opacity=".32" stroke="#e6f1f4" stroke-width="2"/><line x1="658" y1="90" x2="634" y2="220" stroke="#25333a" stroke-width="2" opacity=".55"/>
    <path d="M670 90 L690 90 L666 220 L646 220 Z" fill="#9fb1b8" fill-opacity=".32" stroke="#e6f1f4" stroke-width="2"/>
    <path d="M702 90 L722 90 L698 220 L678 220 Z" fill="#9fb1b8" fill-opacity=".32" stroke="#e6f1f4" stroke-width="2"/><line x1="722" y1="90" x2="698" y2="220" stroke="#25333a" stroke-width="2" opacity=".55"/>
    <path d="M734 90 L754 90 L730 220 L710 220 Z" fill="#9fb1b8" fill-opacity=".32" stroke="#e6f1f4" stroke-width="2"/>
    <path d="M766 90 L786 90 L762 220 L742 220 Z" fill="#9fb1b8" fill-opacity=".32" stroke="#e6f1f4" stroke-width="2"/><line x1="786" y1="90" x2="762" y2="220" stroke="#25333a" stroke-width="2" opacity=".55"/>
    <path d="M798 90 L818 90 L794 220 L774 220 Z" fill="#9fb1b8" fill-opacity=".32" stroke="#e6f1f4" stroke-width="2"/>
    <path d="M830 90 L850 90 L826 220 L806 220 Z" fill="#9fb1b8" fill-opacity=".32" stroke="#e6f1f4" stroke-width="2"/><line x1="850" y1="90" x2="826" y2="220" stroke="#25333a" stroke-width="2" opacity=".55"/>
    <path d="M862 90 L882 90 L858 220 L838 220 Z" fill="#9fb1b8" fill-opacity=".32" stroke="#e6f1f4" stroke-width="2"/>
    <path d="M894 90 L914 90 L890 220 L870 220 Z" fill="#9fb1b8" fill-opacity=".32" stroke="#e6f1f4" stroke-width="2"/><line x1="914" y1="90" x2="890" y2="220" stroke="#25333a" stroke-width="2" opacity=".55"/>
  </g>

  <rect x="944" y="118" width="24" height="78" rx="4" fill="#7c929a" stroke="#cde1e6" stroke-width="2"/>
  <line x1="968" y1="122" x2="968" y2="192" stroke="#edf7fa" stroke-width="2" opacity=".7"/>

  <rect x="505" y="24" width="116" height="35" rx="8" fill="#062238" stroke="#44d7ff" stroke-width="2"/>
  <text x="563" y="47" class="s" text-anchor="middle">FLIGHT OD</text>
  <line x1="535" y1="59" x2="555" y2="91" stroke="#44d7ff" stroke-width="3" marker-end="url(#aC)"/>
  <line x1="600" y1="59" x2="660" y2="91" stroke="#44d7ff" stroke-width="3" marker-end="url(#aC)"/>
  <circle cx="555" cy="91" r="5" fill="#44d7ff"/>
  <circle cx="660" cy="91" r="5" fill="#44d7ff"/>

  <rect x="505" y="248" width="116" height="35" rx="8" fill="#2b2109" stroke="#ffd36f" stroke-width="2"/>
  <text x="563" y="271" class="m" text-anchor="middle">ROOT DIA</text>
  <line x1="520" y1="248" x2="378" y2="166" stroke="#ffd36f" stroke-width="3" marker-end="url(#aY)"/>
  <line x1="563" y1="248" x2="570" y2="164" stroke="#ffd36f" stroke-width="3" marker-end="url(#aY)"/>
  <line x1="610" y1="248" x2="742" y2="166" stroke="#ffd36f" stroke-width="3" marker-end="url(#aY)"/>
  <circle cx="378" cy="166" r="5" fill="#ffd36f"/>
  <circle cx="570" cy="164" r="5" fill="#ffd36f"/>
  <circle cx="742" cy="166" r="5" fill="#ffd36f"/>

  <text x="282" y="300" class="s" text-anchor="middle">FEED SECTION</text>
  <text x="282" y="322" class="small" text-anchor="middle">Deep channel</text>
  <text x="585" y="300" class="s" fill="#35e8bd" text-anchor="middle">TRANSITION SECTION</text>
  <text x="585" y="322" class="small" text-anchor="middle">Gradual root change</text>
  <text x="840" y="300" class="m" text-anchor="middle">METERING SECTION</text>
  <text x="840" y="322" class="small" text-anchor="middle">Shallow channel</text>
</svg>